<svg xmlns="http://www.w3.org/2000/svg" width="760" height="460" viewBox="0 0 760 460">
<rect width="100%" height="100%" fill="#ffffff"/>
<text x="72" y="26" font-family="Arial" font-size="18" font-weight="700">Tango2 rate-distortion</text>
<line x1="72.0" y1="48" x2="72.0" y2="356" stroke="#e5e7eb" stroke-width="1"/>
<line x1="228.0" y1="48" x2="228.0" y2="356" stroke="#e5e7eb" stroke-width="1"/>
<line x1="384.0" y1="48" x2="384.0" y2="356" stroke="#e5e7eb" stroke-width="1"/>
<line x1="540.0" y1="48" x2="540.0" y2="356" stroke="#e5e7eb" stroke-width="1"/>
<line x1="696.0" y1="48" x2="696.0" y2="356" stroke="#e5e7eb" stroke-width="1"/>
<line x1="72" y1="356.0" x2="696" y2="356.0" stroke="#e5e7eb" stroke-width="1"/>
<line x1="72" y1="279.0" x2="696" y2="279.0" stroke="#e5e7eb" stroke-width="1"/>
<line x1="72" y1="202.0" x2="696" y2="202.0" stroke="#e5e7eb" stroke-width="1"/>
<line x1="72" y1="125.0" x2="696" y2="125.0" stroke="#e5e7eb" stroke-width="1"/>
<line x1="72" y1="48.0" x2="696" y2="48.0" stroke="#e5e7eb" stroke-width="1"/>
<line x1="72" y1="356" x2="696" y2="356" stroke="#111827"/>
<line x1="72" y1="48" x2="72" y2="356" stroke="#111827"/>
<text x="320" y="406" font-family="Arial" font-size="13">Bitrate, kbps</text>
<text x="16" y="275" font-family="Arial" font-size="13" transform="rotate(-90 16,275)">Y-PSNR, dB</text>
<line x1="72.0" y1="356" x2="72.0" y2="361" stroke="#111827"/>
<text x="72.0" y="376" font-family="Arial" font-size="11" fill="#374151" text-anchor="middle">1,761</text>
<line x1="228.0" y1="356" x2="228.0" y2="361" stroke="#111827"/>
<text x="228.0" y="376" font-family="Arial" font-size="11" fill="#374151" text-anchor="middle">6,503</text>
<line x1="384.0" y1="356" x2="384.0" y2="361" stroke="#111827"/>
<text x="384.0" y="376" font-family="Arial" font-size="11" fill="#374151" text-anchor="middle">11,245</text>
<line x1="540.0" y1="356" x2="540.0" y2="361" stroke="#111827"/>
<text x="540.0" y="376" font-family="Arial" font-size="11" fill="#374151" text-anchor="middle">15,987</text>
<line x1="696.0" y1="356" x2="696.0" y2="361" stroke="#111827"/>
<text x="696.0" y="376" font-family="Arial" font-size="11" fill="#374151" text-anchor="middle">20,730</text>
<line x1="67" y1="356.0" x2="72" y2="356.0" stroke="#111827"/>
<text x="63" y="360.0" font-family="Arial" font-size="11" fill="#374151" text-anchor="end">37.0</text>
<line x1="67" y1="279.0" x2="72" y2="279.0" stroke="#111827"/>
<text x="63" y="283.0" font-family="Arial" font-size="11" fill="#374151" text-anchor="end">37.9</text>
<line x1="67" y1="202.0" x2="72" y2="202.0" stroke="#111827"/>
<text x="63" y="206.0" font-family="Arial" font-size="11" fill="#374151" text-anchor="end">38.8</text>
<line x1="67" y1="125.0" x2="72" y2="125.0" stroke="#111827"/>
<text x="63" y="129.0" font-family="Arial" font-size="11" fill="#374151" text-anchor="end">39.7</text>
<line x1="67" y1="48.0" x2="72" y2="48.0" stroke="#111827"/>
<text x="63" y="52.0" font-family="Arial" font-size="11" fill="#374151" text-anchor="end">40.6</text>
<polyline fill="none" stroke="#2563eb" stroke-width="3.4" stroke-linecap="round" stroke-linejoin="round" points="95.1,334.4 159.4,214.6 299.9,125.7 672.9,69.2"/>
<circle cx="95.1" cy="334.4" r="4.5" fill="#ffffff" stroke="#2563eb" stroke-width="2"/>
<text x="101.1" y="326.4" font-family="Arial" font-size="11" fill="#374151">QP37</text>
<circle cx="159.4" cy="214.6" r="4.5" fill="#ffffff" stroke="#2563eb" stroke-width="2"/>
<text x="165.4" y="206.6" font-family="Arial" font-size="11" fill="#374151">QP32</text>
<circle cx="299.9" cy="125.7" r="4.5" fill="#ffffff" stroke="#2563eb" stroke-width="2"/>
<text x="305.9" y="117.7" font-family="Arial" font-size="11" fill="#374151">QP27</text>
<circle cx="672.9" cy="69.2" r="4.5" fill="#ffffff" stroke="#2563eb" stroke-width="2"/>
<text x="662.0" y="62.0" font-family="Arial" font-size="11" fill="#374151">QP22</text>
<polyline fill="none" stroke="#dc2626" stroke-width="2.6" stroke-linecap="round" stroke-linejoin="round" stroke-dasharray="7 5" points="95.4,334.8 159.7,214.8 300.1,125.9 666.0,69.9"/>
<rect x="91.4" y="330.8" width="8" height="8" transform="rotate(45 95.4 334.8)" fill="#ffffff" stroke="#dc2626" stroke-width="2"/>
<text x="101.4" y="350.8" font-family="Arial" font-size="11" fill="#374151">QP37</text>
<rect x="155.7" y="210.8" width="8" height="8" transform="rotate(45 159.7 214.8)" fill="#ffffff" stroke="#dc2626" stroke-width="2"/>
<text x="165.7" y="230.8" font-family="Arial" font-size="11" fill="#374151">QP32</text>
<rect x="296.1" y="121.9" width="8" height="8" transform="rotate(45 300.1 125.9)" fill="#ffffff" stroke="#dc2626" stroke-width="2"/>
<text x="306.1" y="141.9" font-family="Arial" font-size="11" fill="#374151">QP27</text>
<rect x="662.0" y="65.9" width="8" height="8" transform="rotate(45 666.0 69.9)" fill="#ffffff" stroke="#dc2626" stroke-width="2"/>
<text x="662.0" y="85.9" font-family="Arial" font-size="11" fill="#374151">QP22</text>
<line x1="288" y1="434" x2="326" y2="434" stroke="#2563eb" stroke-width="3.4" stroke-linecap="round"/>
<circle cx="307.0" cy="434.0" r="4.5" fill="#ffffff" stroke="#2563eb" stroke-width="2"/>
<text x="334" y="438" font-family="Arial" font-size="12">baseline</text>
<line x1="422" y1="434" x2="460" y2="434" stroke="#dc2626" stroke-width="2.6" stroke-linecap="round" stroke-dasharray="7 5"/>
<rect x="437.0" y="430.0" width="8" height="8" transform="rotate(45 441.0 434.0)" fill="#ffffff" stroke="#dc2626" stroke-width="2"/>
<text x="468" y="438" font-family="Arial" font-size="12">csf</text>
</svg>