<svg xmlns="http://www.w3.org/2000/svg" viewBox="0 0 760 440" width="760" height="440">
<rect width="100%" height="100%" fill="#ffffff"/>
<text x="58" y="28" font-family="Arial" font-size="18" fill="#111827">haarpsi_luma: average RD curve</text>
<line x1="58" y1="382" x2="702" y2="382" stroke="#374151"/>
<line x1="58" y1="58" x2="58" y2="382" stroke="#374151"/>
<text x="350.0" y="424" font-family="Arial" font-size="13" fill="#374151">bpp</text>
<text x="12" y="220.0" font-family="Arial" font-size="13" fill="#374151" transform="rotate(-90 12 220.0)">haarpsi_luma</text>
<path d="M58.00,350.50 L200.14,179.68 L408.06,94.03 L702.00,58.00" fill="none" stroke="#2563eb" stroke-width="2.2"/>
<circle cx="58.00" cy="350.50" r="4" fill="#2563eb"/>
<circle cx="200.14" cy="179.68" r="4" fill="#2563eb"/>
<circle cx="408.06" cy="94.03" r="4" fill="#2563eb"/>
<circle cx="702.00" cy="58.00" r="4" fill="#2563eb"/>
<text x="592" y="76" font-family="Arial" font-size="13" fill="#2563eb">baseline</text>
<path d="M59.35,382.00 L196.69,205.72 L404.75,108.08 L695.36,64.55" fill="none" stroke="#dc2626" stroke-width="2.2"/>
<circle cx="59.35" cy="382.00" r="4" fill="#dc2626"/>
<circle cx="196.69" cy="205.72" r="4" fill="#dc2626"/>
<circle cx="404.75" cy="108.08" r="4" fill="#dc2626"/>
<circle cx="695.36" cy="64.55" r="4" fill="#dc2626"/>
<text x="592" y="96" font-family="Arial" font-size="13" fill="#dc2626">csf</text>
</svg>