<svg xmlns="http://www.w3.org/2000/svg" width="760" height="460" viewBox="0 0 760 460">
<rect width="100%" height="100%" fill="#ffffff"/>
<text x="72" y="26" font-family="Arial" font-size="18" font-weight="700">MS-SSIM luma average RD curve</text>
<line x1="72.0" y1="48" x2="72.0" y2="382" stroke="#e5e7eb" stroke-width="1"/>
<line x1="228.0" y1="48" x2="228.0" y2="382" stroke="#e5e7eb" stroke-width="1"/>
<line x1="384.0" y1="48" x2="384.0" y2="382" stroke="#e5e7eb" stroke-width="1"/>
<line x1="540.0" y1="48" x2="540.0" y2="382" stroke="#e5e7eb" stroke-width="1"/>
<line x1="696.0" y1="48" x2="696.0" y2="382" stroke="#e5e7eb" stroke-width="1"/>
<line x1="72" y1="382.0" x2="696" y2="382.0" stroke="#e5e7eb" stroke-width="1"/>
<line x1="72" y1="298.5" x2="696" y2="298.5" stroke="#e5e7eb" stroke-width="1"/>
<line x1="72" y1="215.0" x2="696" y2="215.0" stroke="#e5e7eb" stroke-width="1"/>
<line x1="72" y1="131.5" x2="696" y2="131.5" stroke="#e5e7eb" stroke-width="1"/>
<line x1="72" y1="48.0" x2="696" y2="48.0" stroke="#e5e7eb" stroke-width="1"/>
<line x1="72" y1="382" x2="696" y2="382" stroke="#111827"/>
<line x1="72" y1="48" x2="72" y2="382" stroke="#111827"/>
<text x="368" y="432" font-family="Arial" font-size="13">bpp</text>
<text x="16" y="275" font-family="Arial" font-size="13" transform="rotate(-90 16,275)">MS-SSIM luma</text>
<line x1="72.0" y1="382" x2="72.0" y2="387" stroke="#111827"/>
<text x="72.0" y="402" font-family="Arial" font-size="11" fill="#374151" text-anchor="middle">0.019</text>
<line x1="228.0" y1="382" x2="228.0" y2="387" stroke="#111827"/>
<text x="228.0" y="402" font-family="Arial" font-size="11" fill="#374151" text-anchor="middle">0.245</text>
<line x1="384.0" y1="382" x2="384.0" y2="387" stroke="#111827"/>
<text x="384.0" y="402" font-family="Arial" font-size="11" fill="#374151" text-anchor="middle">0.471</text>
<line x1="540.0" y1="382" x2="540.0" y2="387" stroke="#111827"/>
<text x="540.0" y="402" font-family="Arial" font-size="11" fill="#374151" text-anchor="middle">0.697</text>
<line x1="696.0" y1="382" x2="696.0" y2="387" stroke="#111827"/>
<text x="696.0" y="402" font-family="Arial" font-size="11" fill="#374151" text-anchor="middle">0.922</text>
<line x1="67" y1="382.0" x2="72" y2="382.0" stroke="#111827"/>
<text x="63" y="386.0" font-family="Arial" font-size="11" fill="#374151" text-anchor="end">0.9926</text>
<line x1="67" y1="298.5" x2="72" y2="298.5" stroke="#111827"/>
<text x="63" y="302.5" font-family="Arial" font-size="11" fill="#374151" text-anchor="end">0.9945</text>
<line x1="67" y1="215.0" x2="72" y2="215.0" stroke="#111827"/>
<text x="63" y="219.0" font-family="Arial" font-size="11" fill="#374151" text-anchor="end">0.9965</text>
<line x1="67" y1="131.5" x2="72" y2="131.5" stroke="#111827"/>
<text x="63" y="135.5" font-family="Arial" font-size="11" fill="#374151" text-anchor="end">0.9984</text>
<line x1="67" y1="48.0" x2="72" y2="48.0" stroke="#111827"/>
<text x="63" y="52.0" font-family="Arial" font-size="11" fill="#374151" text-anchor="end">1.0004</text>
<polyline fill="none" stroke="#2563eb" stroke-width="3.4" stroke-linecap="round" stroke-linejoin="round" points="95.1,357.3 336.0,124.7 486.9,83.6 648.1,71.1"/>
<circle cx="95.1" cy="357.3" r="4.5" fill="#ffffff" stroke="#2563eb" stroke-width="2"/>
<text x="101.1" y="349.3" font-family="Arial" font-size="11" fill="#374151">QP37</text>
<circle cx="336.0" cy="124.7" r="4.5" fill="#ffffff" stroke="#2563eb" stroke-width="2"/>
<text x="342.0" y="116.7" font-family="Arial" font-size="11" fill="#374151">QP32</text>
<circle cx="486.9" cy="83.6" r="4.5" fill="#ffffff" stroke="#2563eb" stroke-width="2"/>
<text x="492.9" y="75.6" font-family="Arial" font-size="11" fill="#374151">QP27</text>
<circle cx="648.1" cy="71.1" r="4.5" fill="#ffffff" stroke="#2563eb" stroke-width="2"/>
<text x="654.1" y="63.1" font-family="Arial" font-size="11" fill="#374151">QP22</text>
<polyline fill="none" stroke="#dc2626" stroke-width="2.6" stroke-linecap="round" stroke-linejoin="round" stroke-dasharray="7 5" points="109.4,359.0 388.2,127.4 517.6,83.7 672.9,71.0"/>
<rect x="105.4" y="355.0" width="8" height="8" transform="rotate(45 109.4 359.0)" fill="#ffffff" stroke="#dc2626" stroke-width="2"/>
<text x="115.4" y="375.0" font-family="Arial" font-size="11" fill="#374151">QP37</text>
<rect x="384.2" y="123.4" width="8" height="8" transform="rotate(45 388.2 127.4)" fill="#ffffff" stroke="#dc2626" stroke-width="2"/>
<text x="394.2" y="143.4" font-family="Arial" font-size="11" fill="#374151">QP32</text>
<rect x="513.6" y="79.7" width="8" height="8" transform="rotate(45 517.6 83.7)" fill="#ffffff" stroke="#dc2626" stroke-width="2"/>
<text x="523.6" y="99.7" font-family="Arial" font-size="11" fill="#374151">QP27</text>
<rect x="668.9" y="67.0" width="8" height="8" transform="rotate(45 672.9 71.0)" fill="#ffffff" stroke="#dc2626" stroke-width="2"/>
<text x="662.0" y="87.0" font-family="Arial" font-size="11" fill="#374151">QP22</text>
<rect x="88" y="54" width="126" height="48" rx="4" fill="#ffffff" stroke="#e5e7eb"/>
<line x1="100" y1="72" x2="130" y2="72" stroke="#2563eb" stroke-width="3.4" stroke-linecap="round"/>
<circle cx="115.0" cy="72.0" r="4.5" fill="#ffffff" stroke="#2563eb" stroke-width="2"/>
<text x="140" y="76" font-family="Arial" font-size="12">baseline</text>
<line x1="100" y1="90" x2="130" y2="90" stroke="#dc2626" stroke-width="2.6" stroke-linecap="round" stroke-dasharray="7 5"/>
<rect x="111.0" y="86.0" width="8" height="8" transform="rotate(45 115.0 90.0)" fill="#ffffff" stroke="#dc2626" stroke-width="2"/>
<text x="140" y="94" font-family="Arial" font-size="12">csf</text>
</svg>