<svg xmlns="http://www.w3.org/2000/svg" viewBox="0 0 512 512" width="512" height="512"><rect x="0" y="0" width="100%" height="100%" fill="#f8fafc"/><rect x="0" y="0" width="32" height="32" fill="none" stroke="#2563eb" stroke-width="1.0" opacity="0.74"/><rect x="32" y="0" width="32" height="32" fill="none" stroke="#2563eb" stroke-width="1.0" opacity="0.74"/><rect x="0" y="32" width="32" height="32" fill="none" stroke="#2563eb" stroke-width="1.0" opacity="0.74"/><rect x="32" y="32" width="32" height="32" fill="none" stroke="#2563eb" stroke-width="1.0" opacity="0.74"/><rect x="64" y="0" width="32" height="32" fill="none" stroke="#2563eb" stroke-width="1.0" opacity="0.74"/><rect x="96" y="0" width="32" height="32" fill="none" stroke="#2563eb" stroke-width="1.0" opacity="0.74"/><rect x="64" y="32" width="32" height="16" fill="none" stroke="#2563eb" stroke-width="1.0" opacity="0.74"/><rect x="64" y="48" width="32" height="16" fill="none" stroke="#2563eb" stroke-width="1.0" opacity="0.74"/><rect x="96" y="32" width="32" height="32" fill="none" stroke="#2563eb" stroke-width="1.0" opacity="0.74"/><rect x="0" y="64" width="32" height="32" fill="none" stroke="#2563eb" stroke-width="1.0" opacity="0.74"/><rect x="32" y="64" width="32" height="16" fill="none" stroke="#2563eb" stroke-width="1.0" opacity="0.74"/><rect x="32" y="80" width="32" height="16" fill="none" stroke="#2563eb" stroke-width="1.0" opacity="0.74"/><rect x="0" y="96" width="32" height="32" fill="none" stroke="#2563eb" stroke-width="1.0" opacity="0.74"/><rect x="32" y="96" width="32" height="32" fill="none" stroke="#2563eb" stroke-width="1.0" opacity="0.74"/><rect x="64" y="64" width="32" height="32" fill="none" stroke="#2563eb" stroke-width="1.0" opacity="0.74"/><rect x="96" y="64" width="32" height="32" fill="none" stroke="#2563eb" stroke-width="1.0" opacity="0.74"/><rect x="64" y="96" width="32" height="32" fill="none" stroke="#2563eb" stroke-width="1.0" opacity="0.74"/><rect x="96" y="96" width="32" height="32" fill="none" stroke="#2563eb" stroke-width="1.0" opacity="0.74"/><rect x="128" y="0" width="32" height="32" fill="none" stroke="#2563eb" stroke-width="1.0" opacity="0.74"/><rect x="160" y="0" width="32" height="32" fill="none" stroke="#2563eb" stroke-width="1.0" opacity="0.74"/><rect x="128" y="32" width="16" height="32" fill="none" stroke="#2563eb" stroke-width="1.0" opacity="0.74"/><rect x="144" y="32" width="16" height="32" fill="none" stroke="#2563eb" stroke-width="1.0" opacity="0.74"/><rect x="160" y="32" width="32" height="32" fill="none" stroke="#2563eb" stroke-width="1.0" opacity="0.74"/><rect x="192" y="0" width="32" height="32" fill="none" stroke="#2563eb" stroke-width="1.0" opacity="0.74"/><rect x="224" y="0" width="32" height="32" fill="none" stroke="#2563eb" stroke-width="1.0" opacity="0.74"/><rect x="192" y="32" width="32" height="32" fill="none" stroke="#2563eb" stroke-width="1.0" opacity="0.74"/><rect x="224" y="32" width="32" height="32" fill="none" stroke="#2563eb" stroke-width="1.0" opacity="0.74"/><rect x="128" y="64" width="32" height="16" fill="none" stroke="#2563eb" stroke-width="1.0" opacity="0.74"/><rect x="128" y="80" width="32" height="16" fill="none" stroke="#2563eb" stroke-width="1.0" opacity="0.74"/><rect x="160" y="64" width="32" height="32" fill="none" stroke="#2563eb" stroke-width="1.0" opacity="0.74"/><rect x="128" y="96" width="32" height="32" fill="none" stroke="#2563eb" stroke-width="1.0" opacity="0.74"/><rect x="160" y="96" width="32" height="32" fill="none" stroke="#2563eb" stroke-width="1.0" opacity="0.74"/><rect x="192" y="64" width="32" height="32" fill="none" stroke="#2563eb" stroke-width="1.0" opacity="0.74"/><rect x="224" y="64" width="32" height="32" fill="none" stroke="#2563eb" stroke-width="1.0" opacity="0.74"/><rect x="192" y="96" width="16" height="32" fill="none" stroke="#2563eb" stroke-width="1.0" opacity="0.74"/><rect x="208" y="96" width="16" height="32" fill="none" stroke="#2563eb" stroke-width="1.0" opacity="0.74"/><rect x="224" y="96" width="32" height="32" fill="none" stroke="#2563eb" stroke-width="1.0" opacity="0.74"/><rect x="256" y="0" width="32" height="32" fill="none" stroke="#2563eb" stroke-width="1.0" opacity="0.74"/><rect x="288" y="0" width="16" height="32" fill="none" stroke="#2563eb" stroke-width="1.0" opacity="0.74"/><rect x="304" y="0" width="16" height="32" fill="none" stroke="#2563eb" stroke-width="1.0" opacity="0.74"/><rect x="256" y="32" width="32" height="32" fill="none" stroke="#2563eb" stroke-width="1.0" opacity="0.74"/><rect x="288" y="32" width="32" height="32" fill="none" stroke="#2563eb" stroke-width="1.0" opacity="0.74"/><rect x="320" y="0" width="32" height="32" fill="none" stroke="#2563eb" stroke-width="1.0" opacity="0.74"/><rect x="352" y="0" width="32" height="32" fill="none" stroke="#2563eb" stroke-width="1.0" opacity="0.74"/><rect x="320" y="32" width="32" height="32" fill="none" stroke="#2563eb" stroke-width="1.0" opacity="0.74"/><rect x="352" y="32" width="32" height="32" fill="none" stroke="#2563eb" stroke-width="1.0" opacity="0.74"/><rect x="256" y="64" width="32" height="32" fill="none" stroke="#2563eb" stroke-width="1.0" opacity="0.74"/><rect x="288" y="64" width="32" height="32" fill="none" stroke="#2563eb" stroke-width="1.0" opacity="0.74"/><rect x="256" y="96" width="32" height="32" fill="none" stroke="#2563eb" stroke-width="1.0" opacity="0.74"/><rect x="288" y="96" width="32" height="32" fill="none" stroke="#2563eb" stroke-width="1.0" opacity="0.74"/><rect x="320" y="64" width="32" height="32" fill="none" stroke="#2563eb" stroke-width="1.0" opacity="0.74"/><rect x="352" y="64" width="32" height="32" fill="none" stroke="#2563eb" stroke-width="1.0" opacity="0.74"/><rect x="320" y="96" width="16" height="32" fill="none" stroke="#2563eb" stroke-width="1.0" opacity="0.74"/><rect x="336" y="96" width="16" height="32" fill="none" stroke="#2563eb" stroke-width="1.0" opacity="0.74"/><rect x="352" y="96" width="32" height="32" fill="none" stroke="#2563eb" stroke-width="1.0" opacity="0.74"/><rect x="384" y="0" width="32" height="32" fill="none" stroke="#2563eb" stroke-width="1.0" opacity="0.74"/><rect x="416" y="0" width="32" height="32" fill="none" stroke="#2563eb" stroke-width="1.0" opacity="0.74"/><rect x="384" y="32" width="32" height="32" fill="none" stroke="#2563eb" stroke-width="1.0" opacity="0.74"/><rect x="416" y="32" width="32" height="32" fill="none" stroke="#2563eb" stroke-width="1.0" opacity="0.74"/><rect x="448" y="0" width="32" height="32" fill="none" stroke="#2563eb" stroke-width="1.0" opacity="0.74"/><rect x="480" y="0" width="32" height="32" fill="none" stroke="#2563eb" stroke-width="1.0" opacity="0.74"/><rect x="448" y="32" width="32" height="32" fill="none" stroke="#2563eb" stroke-width="1.0" opacity="0.74"/><rect x="480" y="32" width="32" height="32" fill="none" stroke="#2563eb" stroke-width="1.0" opacity="0.74"/><rect x="384" y="64" width="32" height="32" fill="none" stroke="#2563eb" stroke-width="1.0" opacity="0.74"/><rect x="416" y="64" width="32" height="32" fill="none" stroke="#2563eb" stroke-width="1.0" opacity="0.74"/><rect x="384" y="96" width="32" height="32" fill="none" stroke="#2563eb" stroke-width="1.0" opacity="0.74"/><rect x="416" y="96" width="32" height="32" fill="none" stroke="#2563eb" stroke-width="1.0" opacity="0.74"/><rect x="448" y="64" width="32" height="32" fill="none" stroke="#2563eb" stroke-width="1.0" opacity="0.74"/><rect x="480" y="64" width="32" height="32" fill="none" stroke="#2563eb" stroke-width="1.0" opacity="0.74"/><rect x="448" y="96" width="32" height="16" fill="none" stroke="#2563eb" stroke-width="1.0" opacity="0.74"/><rect x="448" y="112" width="32" height="16" fill="none" stroke="#2563eb" stroke-width="1.0" opacity="0.74"/><rect x="480" y="96" width="32" height="32" fill="none" stroke="#2563eb" stroke-width="1.0" opacity="0.74"/><rect x="0" y="128" width="32" height="32" fill="none" stroke="#2563eb" stroke-width="1.0" opacity="0.74"/><rect x="32" y="128" width="32" height="32" fill="none" stroke="#2563eb" stroke-width="1.0" opacity="0.74"/><rect x="0" y="160" width="32" height="32" fill="none" stroke="#2563eb" stroke-width="1.0" opacity="0.74"/><rect x="32" y="160" width="32" height="32" fill="none" stroke="#2563eb" stroke-width="1.0" opacity="0.74"/><rect x="64" y="128" width="16" height="32" fill="none" stroke="#2563eb" stroke-width="1.0" opacity="0.74"/><rect x="80" y="128" width="16" height="32" fill="none" stroke="#2563eb" stroke-width="1.0" opacity="0.74"/><rect x="96" y="128" width="32" height="32" fill="none" stroke="#2563eb" stroke-width="1.0" opacity="0.74"/><rect x="64" y="160" width="32" height="32" fill="none" stroke="#2563eb" stroke-width="1.0" opacity="0.74"/><rect x="96" y="160" width="32" height="32" fill="none" stroke="#2563eb" stroke-width="1.0" opacity="0.74"/><rect x="0" y="192" width="32" height="32" fill="none" stroke="#2563eb" stroke-width="1.0" opacity="0.74"/><rect x="32" y="192" width="32" height="32" fill="none" stroke="#2563eb" stroke-width="1.0" opacity="0.74"/><rect x="0" y="224" width="32" height="32" fill="none" stroke="#2563eb" stroke-width="1.0" opacity="0.74"/><rect x="32" y="224" width="32" height="32" fill="none" stroke="#2563eb" stroke-width="1.0" opacity="0.74"/><rect x="64" y="192" width="32" height="32" fill="none" stroke="#2563eb" stroke-width="1.0" opacity="0.74"/><rect x="96" y="192" width="32" height="32" fill="none" stroke="#2563eb" stroke-width="1.0" opacity="0.74"/><rect x="64" y="224" width="32" height="16" fill="none" stroke="#2563eb" stroke-width="1.0" opacity="0.74"/><rect x="64" y="240" width="32" height="16" fill="none" stroke="#2563eb" stroke-width="1.0" opacity="0.74"/><rect x="96" y="224" width="32" height="32" fill="none" stroke="#2563eb" stroke-width="1.0" opacity="0.74"/><rect x="128" y="128" width="32" height="32" fill="none" stroke="#2563eb" stroke-width="1.0" opacity="0.74"/><rect x="160" y="128" width="32" height="32" fill="none" stroke="#2563eb" stroke-width="1.0" opacity="0.74"/><rect x="128" y="160" width="32" height="32" fill="none" stroke="#2563eb" stroke-width="1.0" opacity="0.74"/><rect x="160" y="160" width="32" height="32" fill="none" stroke="#2563eb" stroke-width="1.0" opacity="0.74"/><rect x="192" y="128" width="16" height="32" fill="none" stroke="#2563eb" stroke-width="1.0" opacity="0.74"/><rect x="208" y="128" width="16" height="32" fill="none" stroke="#2563eb" stroke-width="1.0" opacity="0.74"/><rect x="224" y="128" width="32" height="32" fill="none" stroke="#2563eb" stroke-width="1.0" opacity="0.74"/><rect x="192" y="160" width="32" height="32" fill="none" stroke="#2563eb" stroke-width="1.0" opacity="0.74"/><rect x="224" y="160" width="16" height="16" fill="none" stroke="#2563eb" stroke-width="1.0" opacity="0.66"/><rect x="240" y="160" width="16" height="16" fill="none" stroke="#2563eb" stroke-width="1.0" opacity="0.66"/><rect x="224" y="176" width="32" height="16" fill="none" stroke="#2563eb" stroke-width="1.0" opacity="0.74"/><rect x="128" y="192" width="32" height="32" fill="none" stroke="#2563eb" stroke-width="1.0" opacity="0.74"/><rect x="160" y="192" width="32" height="32" fill="none" stroke="#2563eb" stroke-width="1.0" opacity="0.74"/><rect x="128" y="224" width="16" height="32" fill="none" stroke="#2563eb" stroke-width="1.0" opacity="0.74"/><rect x="144" y="224" width="16" height="32" fill="none" stroke="#2563eb" stroke-width="1.0" opacity="0.74"/><rect x="160" y="224" width="32" height="32" fill="none" stroke="#2563eb" stroke-width="1.0" opacity="0.74"/><rect x="192" y="192" width="32" height="32" fill="none" stroke="#2563eb" stroke-width="1.0" opacity="0.74"/><rect x="224" y="192" width="32" height="32" fill="none" stroke="#2563eb" stroke-width="1.0" opacity="0.74"/><rect x="192" y="224" width="32" height="32" fill="none" stroke="#2563eb" stroke-width="1.0" opacity="0.74"/><rect x="224" y="224" width="32" height="32" fill="none" stroke="#2563eb" stroke-width="1.0" opacity="0.74"/><rect x="256" y="128" width="16" height="32" fill="none" stroke="#2563eb" stroke-width="1.0" opacity="0.74"/><rect x="272" y="128" width="16" height="32" fill="none" stroke="#2563eb" stroke-width="1.0" opacity="0.74"/><rect x="288" y="128" width="32" height="32" fill="none" stroke="#2563eb" stroke-width="1.0" opacity="0.74"/><rect x="256" y="160" width="32" height="16" fill="none" stroke="#2563eb" stroke-width="1.0" opacity="0.74"/><rect x="256" y="176" width="32" height="16" fill="none" stroke="#2563eb" stroke-width="1.0" opacity="0.74"/><rect x="288" y="160" width="32" height="32" fill="none" stroke="#2563eb" stroke-width="1.0" opacity="0.74"/><rect x="320" y="128" width="32" height="32" fill="none" stroke="#2563eb" stroke-width="1.0" opacity="0.74"/><rect x="352" y="128" width="32" height="16" fill="none" stroke="#2563eb" stroke-width="1.0" opacity="0.74"/><rect x="352" y="144" width="32" height="16" fill="none" stroke="#2563eb" stroke-width="1.0" opacity="0.74"/><rect x="320" y="160" width="16" height="32" fill="none" stroke="#2563eb" stroke-width="1.0" opacity="0.74"/><rect x="336" y="160" width="16" height="32" fill="none" stroke="#2563eb" stroke-width="1.0" opacity="0.74"/><rect x="352" y="160" width="32" height="32" fill="none" stroke="#2563eb" stroke-width="1.0" opacity="0.74"/><rect x="256" y="192" width="32" height="32" fill="none" stroke="#2563eb" stroke-width="1.0" opacity="0.74"/><rect x="288" y="192" width="32" height="32" fill="none" stroke="#2563eb" stroke-width="1.0" opacity="0.74"/><rect x="256" y="224" width="32" height="32" fill="none" stroke="#2563eb" stroke-width="1.0" opacity="0.74"/><rect x="288" y="224" width="32" height="32" fill="none" stroke="#2563eb" stroke-width="1.0" opacity="0.74"/><rect x="320" y="192" width="32" height="32" fill="none" stroke="#2563eb" stroke-width="1.0" opacity="0.74"/><rect x="352" y="192" width="32" height="32" fill="none" stroke="#2563eb" stroke-width="1.0" opacity="0.74"/><rect x="320" y="224" width="32" height="32" fill="none" stroke="#2563eb" stroke-width="1.0" opacity="0.74"/><rect x="352" y="224" width="32" height="32" fill="none" stroke="#2563eb" stroke-width="1.0" opacity="0.74"/><rect x="384" y="128" width="16" height="32" fill="none" stroke="#2563eb" stroke-width="1.0" opacity="0.74"/><rect x="400" y="128" width="16" height="32" fill="none" stroke="#2563eb" stroke-width="1.0" opacity="0.74"/><rect x="416" y="128" width="32" height="32" fill="none" stroke="#2563eb" stroke-width="1.0" opacity="0.74"/><rect x="384" y="160" width="32" height="32" fill="none" stroke="#2563eb" stroke-width="1.0" opacity="0.74"/><rect x="416" y="160" width="16" height="16" fill="none" stroke="#2563eb" stroke-width="1.0" opacity="0.66"/><rect x="416" y="176" width="16" height="16" fill="none" stroke="#2563eb" stroke-width="1.0" opacity="0.66"/><rect x="432" y="160" width="16" height="32" fill="none" stroke="#2563eb" stroke-width="1.0" opacity="0.74"/><rect x="448" y="128" width="32" height="32" fill="none" stroke="#2563eb" stroke-width="1.0" opacity="0.74"/><rect x="480" y="128" width="32" height="32" fill="none" stroke="#2563eb" stroke-width="1.0" opacity="0.74"/><rect x="448" y="160" width="32" height="32" fill="none" stroke="#2563eb" stroke-width="1.0" opacity="0.74"/><rect x="480" y="160" width="32" height="32" fill="none" stroke="#2563eb" stroke-width="1.0" opacity="0.74"/><rect x="384" y="192" width="32" height="32" fill="none" stroke="#2563eb" stroke-width="1.0" opacity="0.74"/><rect x="416" y="192" width="16" height="32" fill="none" stroke="#2563eb" stroke-width="1.0" opacity="0.74"/><rect x="432" y="192" width="16" height="32" fill="none" stroke="#2563eb" stroke-width="1.0" opacity="0.74"/><rect x="384" y="224" width="32" height="16" fill="none" stroke="#2563eb" stroke-width="1.0" opacity="0.74"/><rect x="384" y="240" width="32" height="16" fill="none" stroke="#2563eb" stroke-width="1.0" opacity="0.74"/><rect x="416" y="224" width="32" height="32" fill="none" stroke="#2563eb" stroke-width="1.0" opacity="0.74"/><rect x="448" y="192" width="32" height="32" fill="none" stroke="#2563eb" stroke-width="1.0" opacity="0.74"/><rect x="480" y="192" width="32" height="32" fill="none" stroke="#2563eb" stroke-width="1.0" opacity="0.74"/><rect x="448" y="224" width="32" height="32" fill="none" stroke="#2563eb" stroke-width="1.0" opacity="0.74"/><rect x="480" y="224" width="16" height="32" fill="none" stroke="#2563eb" stroke-width="1.0" opacity="0.74"/><rect x="496" y="224" width="16" height="32" fill="none" stroke="#2563eb" stroke-width="1.0" opacity="0.74"/><rect x="0" y="256" width="32" height="32" fill="none" stroke="#2563eb" stroke-width="1.0" opacity="0.74"/><rect x="32" y="256" width="32" height="32" fill="none" stroke="#2563eb" stroke-width="1.0" opacity="0.74"/><rect x="0" y="288" width="32" height="32" fill="none" stroke="#2563eb" stroke-width="1.0" opacity="0.74"/><rect x="32" y="288" width="32" height="16" fill="none" stroke="#2563eb" stroke-width="1.0" opacity="0.74"/><rect x="32" y="304" width="32" height="16" fill="none" stroke="#2563eb" stroke-width="1.0" opacity="0.74"/><rect x="64" y="256" width="32" height="32" fill="none" stroke="#2563eb" stroke-width="1.0" opacity="0.74"/><rect x="96" y="256" width="32" height="32" fill="none" stroke="#2563eb" stroke-width="1.0" opacity="0.74"/><rect x="64" y="288" width="32" height="32" fill="none" stroke="#2563eb" stroke-width="1.0" opacity="0.74"/><rect x="96" y="288" width="32" height="32" fill="none" stroke="#2563eb" stroke-width="1.0" opacity="0.74"/><rect x="0" y="320" width="32" height="32" fill="none" stroke="#2563eb" stroke-width="1.0" opacity="0.74"/><rect x="32" y="320" width="32" height="32" fill="none" stroke="#2563eb" stroke-width="1.0" opacity="0.74"/><rect x="0" y="352" width="16" height="32" fill="none" stroke="#2563eb" stroke-width="1.0" opacity="0.74"/><rect x="16" y="352" width="16" height="32" fill="none" stroke="#2563eb" stroke-width="1.0" opacity="0.74"/><rect x="32" y="352" width="32" height="16" fill="none" stroke="#2563eb" stroke-width="1.0" opacity="0.74"/><rect x="32" y="368" width="32" height="16" fill="none" stroke="#2563eb" stroke-width="1.0" opacity="0.74"/><rect x="64" y="320" width="32" height="32" fill="none" stroke="#2563eb" stroke-width="1.0" opacity="0.74"/><rect x="96" y="320" width="32" height="32" fill="none" stroke="#2563eb" stroke-width="1.0" opacity="0.74"/><rect x="64" y="352" width="16" height="32" fill="none" stroke="#2563eb" stroke-width="1.0" opacity="0.74"/><rect x="80" y="352" width="16" height="32" fill="none" stroke="#2563eb" stroke-width="1.0" opacity="0.74"/><rect x="96" y="352" width="32" height="32" fill="none" stroke="#2563eb" stroke-width="1.0" opacity="0.74"/><rect x="128" y="256" width="32" height="32" fill="none" stroke="#2563eb" stroke-width="1.0" opacity="0.74"/><rect x="160" y="256" width="32" height="32" fill="none" stroke="#2563eb" stroke-width="1.0" opacity="0.74"/><rect x="128" y="288" width="32" height="32" fill="none" stroke="#2563eb" stroke-width="1.0" opacity="0.74"/><rect x="160" y="288" width="16" height="32" fill="none" stroke="#2563eb" stroke-width="1.0" opacity="0.74"/><rect x="176" y="288" width="16" height="32" fill="none" stroke="#2563eb" stroke-width="1.0" opacity="0.74"/><rect x="192" y="256" width="32" height="32" fill="none" stroke="#2563eb" stroke-width="1.0" opacity="0.74"/><rect x="224" y="256" width="32" height="16" fill="none" stroke="#2563eb" stroke-width="1.0" opacity="0.74"/><rect x="224" y="272" width="16" height="16" fill="none" stroke="#2563eb" stroke-width="1.0" opacity="0.66"/><rect x="240" y="272" width="16" height="16" fill="none" stroke="#2563eb" stroke-width="1.0" opacity="0.66"/><rect x="192" y="288" width="16" height="32" fill="none" stroke="#2563eb" stroke-width="1.0" opacity="0.74"/><rect x="208" y="288" width="16" height="32" fill="none" stroke="#2563eb" stroke-width="1.0" opacity="0.74"/><rect x="224" y="288" width="16" height="32" fill="none" stroke="#2563eb" stroke-width="1.0" opacity="0.74"/><rect x="240" y="288" width="16" height="16" fill="none" stroke="#2563eb" stroke-width="1.0" opacity="0.66"/><rect x="240" y="304" width="16" height="16" fill="none" stroke="#2563eb" stroke-width="1.0" opacity="0.66"/><rect x="128" y="320" width="32" height="32" fill="none" stroke="#2563eb" stroke-width="1.0" opacity="0.74"/><rect x="160" y="320" width="16" height="32" fill="none" stroke="#2563eb" stroke-width="1.0" opacity="0.74"/><rect x="176" y="320" width="16" height="32" fill="none" stroke="#2563eb" stroke-width="1.0" opacity="0.74"/><rect x="128" y="352" width="32" height="32" fill="none" stroke="#2563eb" stroke-width="1.0" opacity="0.74"/><rect x="160" y="352" width="32" height="32" fill="none" stroke="#2563eb" stroke-width="1.0" opacity="0.74"/><rect x="192" y="320" width="32" height="32" fill="none" stroke="#2563eb" stroke-width="1.0" opacity="0.74"/><rect x="224" y="320" width="32" height="32" fill="none" stroke="#2563eb" stroke-width="1.0" opacity="0.74"/><rect x="192" y="352" width="32" height="32" fill="none" stroke="#2563eb" stroke-width="1.0" opacity="0.74"/><rect x="224" y="352" width="32" height="16" fill="none" stroke="#2563eb" stroke-width="1.0" opacity="0.74"/><rect x="224" y="368" width="32" height="16" fill="none" stroke="#2563eb" stroke-width="1.0" opacity="0.74"/><rect x="256" y="256" width="32" height="32" fill="none" stroke="#2563eb" stroke-width="1.0" opacity="0.74"/><rect x="288" y="256" width="16" height="32" fill="none" stroke="#2563eb" stroke-width="1.0" opacity="0.74"/><rect x="304" y="256" width="16" height="16" fill="none" stroke="#2563eb" stroke-width="1.0" opacity="0.66"/><rect x="304" y="272" width="16" height="16" fill="none" stroke="#2563eb" stroke-width="1.0" opacity="0.66"/><rect x="256" y="288" width="32" height="32" fill="none" stroke="#2563eb" stroke-width="1.0" opacity="0.74"/><rect x="288" y="288" width="32" height="32" fill="none" stroke="#2563eb" stroke-width="1.0" opacity="0.74"/><rect x="320" y="256" width="32" height="32" fill="none" stroke="#2563eb" stroke-width="1.0" opacity="0.74"/><rect x="352" y="256" width="32" height="16" fill="none" stroke="#2563eb" stroke-width="1.0" opacity="0.74"/><rect x="352" y="272" width="16" height="16" fill="none" stroke="#2563eb" stroke-width="1.0" opacity="0.66"/><rect x="368" y="272" width="16" height="16" fill="none" stroke="#2563eb" stroke-width="1.0" opacity="0.66"/><rect x="320" y="288" width="32" height="16" fill="none" stroke="#2563eb" stroke-width="1.0" opacity="0.74"/><rect x="320" y="304" width="16" height="16" fill="none" stroke="#2563eb" stroke-width="1.0" opacity="0.66"/><rect x="336" y="304" width="16" height="16" fill="none" stroke="#2563eb" stroke-width="1.0" opacity="0.66"/><rect x="352" y="288" width="16" height="16" fill="none" stroke="#2563eb" stroke-width="1.0" opacity="0.66"/><rect x="352" y="304" width="16" height="16" fill="none" stroke="#2563eb" stroke-width="1.0" opacity="0.66"/><rect x="368" y="288" width="16" height="32" fill="none" stroke="#2563eb" stroke-width="1.0" opacity="0.74"/><rect x="256" y="320" width="32" height="16" fill="none" stroke="#2563eb" stroke-width="1.0" opacity="0.74"/><rect x="256" y="336" width="32" height="16" fill="none" stroke="#2563eb" stroke-width="1.0" opacity="0.74"/><rect x="288" y="320" width="32" height="32" fill="none" stroke="#2563eb" stroke-width="1.0" opacity="0.74"/><rect x="256" y="352" width="32" height="32" fill="none" stroke="#2563eb" stroke-width="1.0" opacity="0.74"/><rect x="288" y="352" width="32" height="32" fill="none" stroke="#2563eb" stroke-width="1.0" opacity="0.74"/><rect x="320" y="320" width="32" height="32" fill="none" stroke="#2563eb" stroke-width="1.0" opacity="0.74"/><rect x="352" y="320" width="32" height="32" fill="none" stroke="#2563eb" stroke-width="1.0" opacity="0.74"/><rect x="320" y="352" width="32" height="32" fill="none" stroke="#2563eb" stroke-width="1.0" opacity="0.74"/><rect x="352" y="352" width="16" height="32" fill="none" stroke="#2563eb" stroke-width="1.0" opacity="0.74"/><rect x="368" y="352" width="16" height="16" fill="none" stroke="#2563eb" stroke-width="1.0" opacity="0.66"/><rect x="368" y="368" width="16" height="16" fill="none" stroke="#2563eb" stroke-width="1.0" opacity="0.66"/><rect x="384" y="256" width="32" height="32" fill="none" stroke="#2563eb" stroke-width="1.0" opacity="0.74"/><rect x="416" y="256" width="32" height="32" fill="none" stroke="#2563eb" stroke-width="1.0" opacity="0.74"/><rect x="384" y="288" width="16" height="16" fill="none" stroke="#2563eb" stroke-width="1.0" opacity="0.66"/><rect x="400" y="288" width="16" height="16" fill="none" stroke="#2563eb" stroke-width="1.0" opacity="0.66"/><rect x="384" y="304" width="16" height="16" fill="none" stroke="#2563eb" stroke-width="1.0" opacity="0.66"/><rect x="400" y="304" width="16" height="16" fill="none" stroke="#2563eb" stroke-width="1.0" opacity="0.66"/><rect x="416" y="288" width="32" height="32" fill="none" stroke="#2563eb" stroke-width="1.0" opacity="0.74"/><rect x="448" y="256" width="32" height="32" fill="none" stroke="#2563eb" stroke-width="1.0" opacity="0.74"/><rect x="480" y="256" width="32" height="32" fill="none" stroke="#2563eb" stroke-width="1.0" opacity="0.74"/><rect x="448" y="288" width="16" height="32" fill="none" stroke="#2563eb" stroke-width="1.0" opacity="0.74"/><rect x="464" y="288" width="16" height="16" fill="none" stroke="#2563eb" stroke-width="1.0" opacity="0.66"/><rect x="464" y="304" width="16" height="16" fill="none" stroke="#2563eb" stroke-width="1.0" opacity="0.66"/><rect x="480" y="288" width="32" height="32" fill="none" stroke="#2563eb" stroke-width="1.0" opacity="0.74"/><rect x="384" y="320" width="32" height="32" fill="none" stroke="#2563eb" stroke-width="1.0" opacity="0.74"/><rect x="416" y="320" width="32" height="32" fill="none" stroke="#2563eb" stroke-width="1.0" opacity="0.74"/><rect x="384" y="352" width="16" height="16" fill="none" stroke="#2563eb" stroke-width="1.0" opacity="0.66"/><rect x="400" y="352" width="16" height="16" fill="none" stroke="#2563eb" stroke-width="1.0" opacity="0.66"/><rect x="384" y="368" width="16" height="16" fill="none" stroke="#2563eb" stroke-width="1.0" opacity="0.66"/><rect x="400" y="368" width="16" height="16" fill="none" stroke="#2563eb" stroke-width="1.0" opacity="0.66"/><rect x="416" y="352" width="32" height="32" fill="none" stroke="#2563eb" stroke-width="1.0" opacity="0.74"/><rect x="448" y="320" width="32" height="16" fill="none" stroke="#2563eb" stroke-width="1.0" opacity="0.74"/><rect x="448" y="336" width="32" height="16" fill="none" stroke="#2563eb" stroke-width="1.0" opacity="0.74"/><rect x="480" y="320" width="16" height="32" fill="none" stroke="#2563eb" stroke-width="1.0" opacity="0.74"/><rect x="496" y="320" width="16" height="32" fill="none" stroke="#2563eb" stroke-width="1.0" opacity="0.74"/><rect x="448" y="352" width="32" height="32" fill="none" stroke="#2563eb" stroke-width="1.0" opacity="0.74"/><rect x="480" y="352" width="32" height="32" fill="none" stroke="#2563eb" stroke-width="1.0" opacity="0.74"/><rect x="0" y="384" width="32" height="32" fill="none" stroke="#2563eb" stroke-width="1.0" opacity="0.74"/><rect x="32" y="384" width="32" height="32" fill="none" stroke="#2563eb" stroke-width="1.0" opacity="0.74"/><rect x="0" y="416" width="32" height="32" fill="none" stroke="#2563eb" stroke-width="1.0" opacity="0.74"/><rect x="32" y="416" width="16" height="32" fill="none" stroke="#2563eb" stroke-width="1.0" opacity="0.74"/><rect x="48" y="416" width="16" height="32" fill="none" stroke="#2563eb" stroke-width="1.0" opacity="0.74"/><rect x="64" y="384" width="32" height="32" fill="none" stroke="#2563eb" stroke-width="1.0" opacity="0.74"/><rect x="96" y="384" width="32" height="16" fill="none" stroke="#2563eb" stroke-width="1.0" opacity="0.74"/><rect x="96" y="400" width="32" height="16" fill="none" stroke="#2563eb" stroke-width="1.0" opacity="0.74"/><rect x="64" y="416" width="32" height="32" fill="none" stroke="#2563eb" stroke-width="1.0" opacity="0.74"/><rect x="96" y="416" width="32" height="32" fill="none" stroke="#2563eb" stroke-width="1.0" opacity="0.74"/><rect x="0" y="448" width="32" height="32" fill="none" stroke="#2563eb" stroke-width="1.0" opacity="0.74"/><rect x="32" y="448" width="16" height="16" fill="none" stroke="#2563eb" stroke-width="1.0" opacity="0.66"/><rect x="48" y="448" width="16" height="16" fill="none" stroke="#2563eb" stroke-width="1.0" opacity="0.66"/><rect x="32" y="464" width="8" height="16" fill="none" stroke="#2563eb" stroke-width="1.0" opacity="0.66"/><rect x="40" y="464" width="16" height="16" fill="none" stroke="#2563eb" stroke-width="1.0" opacity="0.66"/><rect x="56" y="464" width="8" height="16" fill="none" stroke="#2563eb" stroke-width="1.0" opacity="0.66"/><rect x="0" y="480" width="32" height="32" fill="none" stroke="#2563eb" stroke-width="1.0" opacity="0.74"/><rect x="32" y="480" width="32" height="32" fill="none" stroke="#2563eb" stroke-width="1.0" opacity="0.74"/><rect x="64" y="448" width="32" height="32" fill="none" stroke="#2563eb" stroke-width="1.0" opacity="0.74"/><rect x="96" y="448" width="32" height="32" fill="none" stroke="#2563eb" stroke-width="1.0" opacity="0.74"/><rect x="64" y="480" width="32" height="32" fill="none" stroke="#2563eb" stroke-width="1.0" opacity="0.74"/><rect x="96" y="480" width="32" height="32" fill="none" stroke="#2563eb" stroke-width="1.0" opacity="0.74"/><rect x="128" y="384" width="32" height="32" fill="none" stroke="#2563eb" stroke-width="1.0" opacity="0.74"/><rect x="160" y="384" width="32" height="32" fill="none" stroke="#2563eb" stroke-width="1.0" opacity="0.74"/><rect x="128" y="416" width="32" height="32" fill="none" stroke="#2563eb" stroke-width="1.0" opacity="0.74"/><rect x="160" y="416" width="32" height="32" fill="none" stroke="#2563eb" stroke-width="1.0" opacity="0.74"/><rect x="192" y="384" width="32" height="32" fill="none" stroke="#2563eb" stroke-width="1.0" opacity="0.74"/><rect x="224" y="384" width="8" height="32" fill="none" stroke="#2563eb" stroke-width="1.0" opacity="0.74"/><rect x="232" y="384" width="8" height="32" fill="none" stroke="#2563eb" stroke-width="1.0" opacity="0.74"/><rect x="240" y="384" width="16" height="32" fill="none" stroke="#2563eb" stroke-width="1.0" opacity="0.74"/><rect x="192" y="416" width="32" height="32" fill="none" stroke="#2563eb" stroke-width="1.0" opacity="0.74"/><rect x="224" y="416" width="32" height="32" fill="none" stroke="#2563eb" stroke-width="1.0" opacity="0.74"/><rect x="128" y="448" width="32" height="32" fill="none" stroke="#2563eb" stroke-width="1.0" opacity="0.74"/><rect x="160" y="448" width="16" height="32" fill="none" stroke="#2563eb" stroke-width="1.0" opacity="0.74"/><rect x="176" y="448" width="16" height="16" fill="none" stroke="#2563eb" stroke-width="1.0" opacity="0.66"/><rect x="176" y="464" width="16" height="16" fill="none" stroke="#2563eb" stroke-width="1.0" opacity="0.66"/><rect x="128" y="480" width="16" height="16" fill="none" stroke="#2563eb" stroke-width="1.0" opacity="0.66"/><rect x="128" y="496" width="16" height="16" fill="none" stroke="#2563eb" stroke-width="1.0" opacity="0.66"/><rect x="144" y="480" width="16" height="32" fill="none" stroke="#2563eb" stroke-width="1.0" opacity="0.74"/><rect x="160" y="480" width="32" height="32" fill="none" stroke="#2563eb" stroke-width="1.0" opacity="0.74"/><rect x="192" y="448" width="32" height="32" fill="none" stroke="#2563eb" stroke-width="1.0" opacity="0.74"/><rect x="224" y="448" width="16" height="16" fill="none" stroke="#2563eb" stroke-width="1.0" opacity="0.66"/><rect x="240" y="448" width="16" height="16" fill="none" stroke="#2563eb" stroke-width="1.0" opacity="0.66"/><rect x="224" y="464" width="16" height="16" fill="none" stroke="#2563eb" stroke-width="1.0" opacity="0.66"/><rect x="240" y="464" width="16" height="16" fill="none" stroke="#2563eb" stroke-width="1.0" opacity="0.66"/><rect x="192" y="480" width="16" height="16" fill="none" stroke="#2563eb" stroke-width="1.0" opacity="0.66"/><rect x="208" y="480" width="16" height="16" fill="none" stroke="#2563eb" stroke-width="1.0" opacity="0.66"/><rect x="192" y="496" width="32" height="16" fill="none" stroke="#2563eb" stroke-width="1.0" opacity="0.74"/><rect x="224" y="480" width="32" height="32" fill="none" stroke="#2563eb" stroke-width="1.0" opacity="0.74"/><rect x="256" y="384" width="32" height="32" fill="none" stroke="#2563eb" stroke-width="1.0" opacity="0.74"/><rect x="288" y="384" width="32" height="32" fill="none" stroke="#2563eb" stroke-width="1.0" opacity="0.74"/><rect x="256" y="416" width="16" height="32" fill="none" stroke="#2563eb" stroke-width="1.0" opacity="0.74"/><rect x="272" y="416" width="16" height="16" fill="none" stroke="#2563eb" stroke-width="1.0" opacity="0.66"/><rect x="272" y="432" width="16" height="16" fill="none" stroke="#2563eb" stroke-width="1.0" opacity="0.66"/><rect x="288" y="416" width="16" height="32" fill="none" stroke="#2563eb" stroke-width="1.0" opacity="0.74"/><rect x="304" y="416" width="16" height="32" fill="none" stroke="#2563eb" stroke-width="1.0" opacity="0.74"/><rect x="320" y="384" width="16" height="16" fill="none" stroke="#2563eb" stroke-width="1.0" opacity="0.66"/><rect x="336" y="384" width="16" height="16" fill="none" stroke="#2563eb" stroke-width="1.0" opacity="0.66"/><rect x="320" y="400" width="32" height="8" fill="none" stroke="#2563eb" stroke-width="1.0" opacity="0.74"/><rect x="320" y="408" width="32" height="8" fill="none" stroke="#2563eb" stroke-width="1.0" opacity="0.74"/><rect x="352" y="384" width="32" height="32" fill="none" stroke="#2563eb" stroke-width="1.0" opacity="0.74"/><rect x="320" y="416" width="32" height="32" fill="none" stroke="#2563eb" stroke-width="1.0" opacity="0.74"/><rect x="352" y="416" width="32" height="16" fill="none" stroke="#2563eb" stroke-width="1.0" opacity="0.74"/><rect x="352" y="432" width="16" height="16" fill="none" stroke="#2563eb" stroke-width="1.0" opacity="0.66"/><rect x="368" y="432" width="16" height="16" fill="none" stroke="#2563eb" stroke-width="1.0" opacity="0.66"/><rect x="256" y="448" width="16" height="32" fill="none" stroke="#2563eb" stroke-width="1.0" opacity="0.74"/><rect x="272" y="448" width="16" height="32" fill="none" stroke="#2563eb" stroke-width="1.0" opacity="0.74"/><rect x="288" y="448" width="16" height="32" fill="none" stroke="#2563eb" stroke-width="1.0" opacity="0.74"/><rect x="304" y="448" width="16" height="32" fill="none" stroke="#2563eb" stroke-width="1.0" opacity="0.74"/><rect x="256" y="480" width="32" height="32" fill="none" stroke="#2563eb" stroke-width="1.0" opacity="0.74"/><rect x="288" y="480" width="16" height="32" fill="none" stroke="#2563eb" stroke-width="1.0" opacity="0.74"/><rect x="304" y="480" width="16" height="32" fill="none" stroke="#2563eb" stroke-width="1.0" opacity="0.74"/><rect x="320" y="448" width="32" height="32" fill="none" stroke="#2563eb" stroke-width="1.0" opacity="0.74"/><rect x="352" y="448" width="32" height="32" fill="none" stroke="#2563eb" stroke-width="1.0" opacity="0.74"/><rect x="320" y="480" width="32" height="32" fill="none" stroke="#2563eb" stroke-width="1.0" opacity="0.74"/><rect x="352" y="480" width="16" height="16" fill="none" stroke="#2563eb" stroke-width="1.0" opacity="0.66"/><rect x="368" y="480" width="16" height="16" fill="none" stroke="#2563eb" stroke-width="1.0" opacity="0.66"/><rect x="352" y="496" width="32" height="16" fill="none" stroke="#2563eb" stroke-width="1.0" opacity="0.74"/><rect x="384" y="384" width="16" height="32" fill="none" stroke="#2563eb" stroke-width="1.0" opacity="0.74"/><rect x="400" y="384" width="16" height="32" fill="none" stroke="#2563eb" stroke-width="1.0" opacity="0.74"/><rect x="416" y="384" width="32" height="32" fill="none" stroke="#2563eb" stroke-width="1.0" opacity="0.74"/><rect x="384" y="416" width="32" height="32" fill="none" stroke="#2563eb" stroke-width="1.0" opacity="0.74"/><rect x="416" y="416" width="32" height="32" fill="none" stroke="#2563eb" stroke-width="1.0" opacity="0.74"/><rect x="448" y="384" width="32" height="32" fill="none" stroke="#2563eb" stroke-width="1.0" opacity="0.74"/><rect x="480" y="384" width="32" height="32" fill="none" stroke="#2563eb" stroke-width="1.0" opacity="0.74"/><rect x="448" y="416" width="32" height="32" fill="none" stroke="#2563eb" stroke-width="1.0" opacity="0.74"/><rect x="480" y="416" width="32" height="32" fill="none" stroke="#2563eb" stroke-width="1.0" opacity="0.74"/><rect x="384" y="448" width="32" height="16" fill="none" stroke="#2563eb" stroke-width="1.0" opacity="0.74"/><rect x="384" y="464" width="32" height="16" fill="none" stroke="#2563eb" stroke-width="1.0" opacity="0.74"/><rect x="416" y="448" width="32" height="32" fill="none" stroke="#2563eb" stroke-width="1.0" opacity="0.74"/><rect x="384" y="480" width="32" height="32" fill="none" stroke="#2563eb" stroke-width="1.0" opacity="0.74"/><rect x="416" y="480" width="32" height="16" fill="none" stroke="#2563eb" stroke-width="1.0" opacity="0.74"/><rect x="416" y="496" width="32" height="16" fill="none" stroke="#2563eb" stroke-width="1.0" opacity="0.74"/><rect x="448" y="448" width="32" height="32" fill="none" stroke="#2563eb" stroke-width="1.0" opacity="0.74"/><rect x="480" y="448" width="32" height="16" fill="none" stroke="#2563eb" stroke-width="1.0" opacity="0.74"/><rect x="480" y="464" width="32" height="16" fill="none" stroke="#2563eb" stroke-width="1.0" opacity="0.74"/><rect x="448" y="480" width="16" height="16" fill="none" stroke="#2563eb" stroke-width="1.0" opacity="0.66"/><rect x="448" y="496" width="16" height="16" fill="none" stroke="#2563eb" stroke-width="1.0" opacity="0.66"/><rect x="464" y="480" width="16" height="16" fill="none" stroke="#2563eb" stroke-width="1.0" opacity="0.66"/><rect x="464" y="496" width="16" height="16" fill="none" stroke="#2563eb" stroke-width="1.0" opacity="0.66"/><rect x="480" y="480" width="32" height="16" fill="none" stroke="#2563eb" stroke-width="1.0" opacity="0.74"/><rect x="480" y="496" width="32" height="16" fill="none" stroke="#2563eb" stroke-width="1.0" opacity="0.74"/></svg>