<svg xmlns="http://www.w3.org/2000/svg" viewBox="0 0 512 512" width="512" height="512"><rect x="0" y="0" width="100%" height="100%" fill="#f8fafc"/><rect x="0" y="0" width="64" height="64" fill="none" stroke="#2563eb" stroke-width="1.0" opacity="0.82"/><rect x="64" y="0" width="64" height="64" fill="none" stroke="#2563eb" stroke-width="1.0" opacity="0.82"/><rect x="0" y="64" width="64" height="64" fill="none" stroke="#2563eb" stroke-width="1.0" opacity="0.82"/><rect x="64" y="64" width="64" height="64" fill="none" stroke="#2563eb" stroke-width="1.0" opacity="0.82"/><rect x="128" y="0" width="64" height="64" fill="none" stroke="#2563eb" stroke-width="1.0" opacity="0.82"/><rect x="192" y="0" width="64" height="64" fill="none" stroke="#2563eb" stroke-width="1.0" opacity="0.82"/><rect x="128" y="64" width="64" height="64" fill="none" stroke="#2563eb" stroke-width="1.0" opacity="0.82"/><rect x="192" y="64" width="64" height="64" fill="none" stroke="#2563eb" stroke-width="1.0" opacity="0.82"/><rect x="256" y="0" width="64" height="64" fill="none" stroke="#2563eb" stroke-width="1.0" opacity="0.82"/><rect x="320" y="0" width="64" height="64" fill="none" stroke="#2563eb" stroke-width="1.0" opacity="0.82"/><rect x="256" y="64" width="64" height="64" fill="none" stroke="#2563eb" stroke-width="1.0" opacity="0.82"/><rect x="320" y="64" width="64" height="64" fill="none" stroke="#2563eb" stroke-width="1.0" opacity="0.82"/><rect x="384" y="0" width="64" height="64" fill="none" stroke="#2563eb" stroke-width="1.0" opacity="0.82"/><rect x="448" y="0" width="64" height="64" fill="none" stroke="#2563eb" stroke-width="1.0" opacity="0.82"/><rect x="384" y="64" width="64" height="64" fill="none" stroke="#2563eb" stroke-width="1.0" opacity="0.82"/><rect x="448" y="64" width="64" height="64" fill="none" stroke="#2563eb" stroke-width="1.0" opacity="0.82"/><rect x="0" y="128" width="64" height="64" fill="none" stroke="#2563eb" stroke-width="1.0" opacity="0.82"/><rect x="64" y="128" width="64" height="64" fill="none" stroke="#2563eb" stroke-width="1.0" opacity="0.82"/><rect x="0" y="192" width="64" height="64" fill="none" stroke="#2563eb" stroke-width="1.0" opacity="0.82"/><rect x="64" y="192" width="64" height="64" fill="none" stroke="#2563eb" stroke-width="1.0" opacity="0.82"/><rect x="128" y="128" width="64" height="64" fill="none" stroke="#2563eb" stroke-width="1.0" opacity="0.82"/><rect x="192" y="128" width="64" height="64" fill="none" stroke="#2563eb" stroke-width="1.0" opacity="0.82"/><rect x="128" y="192" width="64" height="64" fill="none" stroke="#2563eb" stroke-width="1.0" opacity="0.82"/><rect x="192" y="192" width="64" height="64" fill="none" stroke="#2563eb" stroke-width="1.0" opacity="0.82"/><rect x="256" y="128" width="64" height="64" fill="none" stroke="#2563eb" stroke-width="1.0" opacity="0.82"/><rect x="320" y="128" width="64" height="64" fill="none" stroke="#2563eb" stroke-width="1.0" opacity="0.82"/><rect x="256" y="192" width="64" height="64" fill="none" stroke="#2563eb" stroke-width="1.0" opacity="0.82"/><rect x="320" y="192" width="64" height="64" fill="none" stroke="#2563eb" stroke-width="1.0" opacity="0.82"/><rect x="384" y="128" width="64" height="64" fill="none" stroke="#2563eb" stroke-width="1.0" opacity="0.82"/><rect x="448" y="128" width="64" height="64" fill="none" stroke="#2563eb" stroke-width="1.0" opacity="0.82"/><rect x="384" y="192" width="64" height="64" fill="none" stroke="#2563eb" stroke-width="1.0" opacity="0.82"/><rect x="448" y="192" width="64" height="64" fill="none" stroke="#2563eb" stroke-width="1.0" opacity="0.82"/><rect x="0" y="256" width="64" height="64" fill="none" stroke="#2563eb" stroke-width="1.0" opacity="0.82"/><rect x="64" y="256" width="64" height="64" fill="none" stroke="#2563eb" stroke-width="1.0" opacity="0.82"/><rect x="0" y="320" width="64" height="64" fill="none" stroke="#2563eb" stroke-width="1.0" opacity="0.82"/><rect x="64" y="320" width="64" height="64" fill="none" stroke="#2563eb" stroke-width="1.0" opacity="0.82"/><rect x="128" y="256" width="64" height="64" fill="none" stroke="#2563eb" stroke-width="1.0" opacity="0.82"/><rect x="192" y="256" width="64" height="64" fill="none" stroke="#2563eb" stroke-width="1.0" opacity="0.82"/><rect x="128" y="320" width="64" height="64" fill="none" stroke="#2563eb" stroke-width="1.0" opacity="0.82"/><rect x="192" y="320" width="64" height="64" fill="none" stroke="#2563eb" stroke-width="1.0" opacity="0.82"/><rect x="256" y="256" width="64" height="64" fill="none" stroke="#2563eb" stroke-width="1.0" opacity="0.82"/><rect x="320" y="256" width="64" height="64" fill="none" stroke="#2563eb" stroke-width="1.0" opacity="0.82"/><rect x="256" y="320" width="64" height="64" fill="none" stroke="#2563eb" stroke-width="1.0" opacity="0.82"/><rect x="320" y="320" width="64" height="64" fill="none" stroke="#2563eb" stroke-width="1.0" opacity="0.82"/><rect x="384" y="256" width="64" height="64" fill="none" stroke="#2563eb" stroke-width="1.0" opacity="0.82"/><rect x="448" y="256" width="64" height="64" fill="none" stroke="#2563eb" stroke-width="1.0" opacity="0.82"/><rect x="384" y="320" width="64" height="64" fill="none" stroke="#2563eb" stroke-width="1.0" opacity="0.82"/><rect x="448" y="320" width="64" height="64" fill="none" stroke="#2563eb" stroke-width="1.0" opacity="0.82"/><rect x="0" y="384" width="64" height="64" fill="none" stroke="#2563eb" stroke-width="1.0" opacity="0.82"/><rect x="64" y="384" width="64" height="64" fill="none" stroke="#2563eb" stroke-width="1.0" opacity="0.82"/><rect x="0" y="448" width="64" height="64" fill="none" stroke="#2563eb" stroke-width="1.0" opacity="0.82"/><rect x="64" y="448" width="64" height="64" fill="none" stroke="#2563eb" stroke-width="1.0" opacity="0.82"/><rect x="128" y="384" width="64" height="64" fill="none" stroke="#2563eb" stroke-width="1.0" opacity="0.82"/><rect x="192" y="384" width="64" height="64" fill="none" stroke="#2563eb" stroke-width="1.0" opacity="0.82"/><rect x="128" y="448" width="64" height="64" fill="none" stroke="#2563eb" stroke-width="1.0" opacity="0.82"/><rect x="192" y="448" width="64" height="64" fill="none" stroke="#2563eb" stroke-width="1.0" opacity="0.82"/><rect x="256" y="384" width="64" height="64" fill="none" stroke="#2563eb" stroke-width="1.0" opacity="0.82"/><rect x="320" y="384" width="64" height="64" fill="none" stroke="#2563eb" stroke-width="1.0" opacity="0.82"/><rect x="256" y="448" width="64" height="64" fill="none" stroke="#2563eb" stroke-width="1.0" opacity="0.82"/><rect x="320" y="448" width="64" height="64" fill="none" stroke="#2563eb" stroke-width="1.0" opacity="0.82"/><rect x="384" y="384" width="64" height="64" fill="none" stroke="#2563eb" stroke-width="1.0" opacity="0.82"/><rect x="448" y="384" width="64" height="64" fill="none" stroke="#2563eb" stroke-width="1.0" opacity="0.82"/><rect x="384" y="448" width="64" height="64" fill="none" stroke="#2563eb" stroke-width="1.0" opacity="0.82"/><rect x="448" y="448" width="64" height="64" fill="none" stroke="#2563eb" stroke-width="1.0" opacity="0.82"/></svg>