<svg xmlns="http://www.w3.org/2000/svg" width="760" height="460" viewBox="0 0 760 460">
<rect width="100%" height="100%" fill="#ffffff"/>
<text x="72" y="26" font-family="Arial" font-size="18" font-weight="700">SSIM index average RD curve</text>
<line x1="72.0" y1="48" x2="72.0" y2="382" stroke="#e5e7eb" stroke-width="1"/>
<line x1="228.0" y1="48" x2="228.0" y2="382" stroke="#e5e7eb" stroke-width="1"/>
<line x1="384.0" y1="48" x2="384.0" y2="382" stroke="#e5e7eb" stroke-width="1"/>
<line x1="540.0" y1="48" x2="540.0" y2="382" stroke="#e5e7eb" stroke-width="1"/>
<line x1="696.0" y1="48" x2="696.0" y2="382" stroke="#e5e7eb" stroke-width="1"/>
<line x1="72" y1="382.0" x2="696" y2="382.0" stroke="#e5e7eb" stroke-width="1"/>
<line x1="72" y1="298.5" x2="696" y2="298.5" stroke="#e5e7eb" stroke-width="1"/>
<line x1="72" y1="215.0" x2="696" y2="215.0" stroke="#e5e7eb" stroke-width="1"/>
<line x1="72" y1="131.5" x2="696" y2="131.5" stroke="#e5e7eb" stroke-width="1"/>
<line x1="72" y1="48.0" x2="696" y2="48.0" stroke="#e5e7eb" stroke-width="1"/>
<line x1="72" y1="382" x2="696" y2="382" stroke="#111827"/>
<line x1="72" y1="48" x2="72" y2="382" stroke="#111827"/>
<text x="368" y="432" font-family="Arial" font-size="13">bpp</text>
<text x="16" y="275" font-family="Arial" font-size="13" transform="rotate(-90 16,275)">SSIM index</text>
<line x1="72.0" y1="382" x2="72.0" y2="387" stroke="#111827"/>
<text x="72.0" y="402" font-family="Arial" font-size="11" fill="#374151" text-anchor="middle">0.149</text>
<line x1="228.0" y1="382" x2="228.0" y2="387" stroke="#111827"/>
<text x="228.0" y="402" font-family="Arial" font-size="11" fill="#374151" text-anchor="middle">0.442</text>
<line x1="384.0" y1="382" x2="384.0" y2="387" stroke="#111827"/>
<text x="384.0" y="402" font-family="Arial" font-size="11" fill="#374151" text-anchor="middle">0.735</text>
<line x1="540.0" y1="382" x2="540.0" y2="387" stroke="#111827"/>
<text x="540.0" y="402" font-family="Arial" font-size="11" fill="#374151" text-anchor="middle">1.03</text>
<line x1="696.0" y1="382" x2="696.0" y2="387" stroke="#111827"/>
<text x="696.0" y="402" font-family="Arial" font-size="11" fill="#374151" text-anchor="middle">1.32</text>
<line x1="67" y1="382.0" x2="72" y2="382.0" stroke="#111827"/>
<text x="63" y="386.0" font-family="Arial" font-size="11" fill="#374151" text-anchor="end">0.9386</text>
<line x1="67" y1="298.5" x2="72" y2="298.5" stroke="#111827"/>
<text x="63" y="302.5" font-family="Arial" font-size="11" fill="#374151" text-anchor="end">0.9518</text>
<line x1="67" y1="215.0" x2="72" y2="215.0" stroke="#111827"/>
<text x="63" y="219.0" font-family="Arial" font-size="11" fill="#374151" text-anchor="end">0.965</text>
<line x1="67" y1="131.5" x2="72" y2="131.5" stroke="#111827"/>
<text x="63" y="135.5" font-family="Arial" font-size="11" fill="#374151" text-anchor="end">0.9782</text>
<line x1="67" y1="48.0" x2="72" y2="48.0" stroke="#111827"/>
<text x="63" y="52.0" font-family="Arial" font-size="11" fill="#374151" text-anchor="end">0.9914</text>
<polyline fill="none" stroke="#2563eb" stroke-width="3.4" stroke-linecap="round" stroke-linejoin="round" points="97.6,351.7 218.1,205.8 400.0,121.1 672.9,71.0"/>
<circle cx="97.6" cy="351.7" r="4.5" fill="#ffffff" stroke="#2563eb" stroke-width="2"/>
<text x="103.6" y="343.7" font-family="Arial" font-size="11" fill="#374151">QP37</text>
<circle cx="218.1" cy="205.8" r="4.5" fill="#ffffff" stroke="#2563eb" stroke-width="2"/>
<text x="224.1" y="197.8" font-family="Arial" font-size="11" fill="#374151">QP32</text>
<circle cx="400.0" cy="121.1" r="4.5" fill="#ffffff" stroke="#2563eb" stroke-width="2"/>
<text x="406.0" y="113.1" font-family="Arial" font-size="11" fill="#374151">QP27</text>
<circle cx="672.9" cy="71.0" r="4.5" fill="#ffffff" stroke="#2563eb" stroke-width="2"/>
<text x="662.0" y="63.0" font-family="Arial" font-size="11" fill="#374151">QP22</text>
<polyline fill="none" stroke="#dc2626" stroke-width="2.6" stroke-linecap="round" stroke-linejoin="round" stroke-dasharray="7 5" points="95.1,359.0 211.2,215.7 395.2,129.2 671.5,77.4"/>
<rect x="91.1" y="355.0" width="8" height="8" transform="rotate(45 95.1 359.0)" fill="#ffffff" stroke="#dc2626" stroke-width="2"/>
<text x="101.1" y="375.0" font-family="Arial" font-size="11" fill="#374151">QP37</text>
<rect x="207.2" y="211.7" width="8" height="8" transform="rotate(45 211.2 215.7)" fill="#ffffff" stroke="#dc2626" stroke-width="2"/>
<text x="217.2" y="231.7" font-family="Arial" font-size="11" fill="#374151">QP32</text>
<rect x="391.2" y="125.2" width="8" height="8" transform="rotate(45 395.2 129.2)" fill="#ffffff" stroke="#dc2626" stroke-width="2"/>
<text x="401.2" y="145.2" font-family="Arial" font-size="11" fill="#374151">QP27</text>
<rect x="667.5" y="73.4" width="8" height="8" transform="rotate(45 671.5 77.4)" fill="#ffffff" stroke="#dc2626" stroke-width="2"/>
<text x="662.0" y="93.4" font-family="Arial" font-size="11" fill="#374151">QP22</text>
<rect x="88" y="54" width="126" height="48" rx="4" fill="#ffffff" stroke="#e5e7eb"/>
<line x1="100" y1="72" x2="130" y2="72" stroke="#2563eb" stroke-width="3.4" stroke-linecap="round"/>
<circle cx="115.0" cy="72.0" r="4.5" fill="#ffffff" stroke="#2563eb" stroke-width="2"/>
<text x="140" y="76" font-family="Arial" font-size="12">baseline</text>
<line x1="100" y1="90" x2="130" y2="90" stroke="#dc2626" stroke-width="2.6" stroke-linecap="round" stroke-dasharray="7 5"/>
<rect x="111.0" y="86.0" width="8" height="8" transform="rotate(45 115.0 90.0)" fill="#ffffff" stroke="#dc2626" stroke-width="2"/>
<text x="140" y="94" font-family="Arial" font-size="12">csf</text>
</svg>